<svg width="15" height="15" viewBox="0 0 15 15" fill="none" xmlns="http://www.w3.org/2000/svg">
<path d="M7.44902 0.900024C5.15136 0.900024 2.99375 1.10627 1.84492 1.3947C1.07949 1.60095 0.417384 2.2197 0.278709 3.16877C0.140035 4.15813 0 5.64377 0 7.50002C0 9.35627 0.138675 10.8 0.312698 11.8313C0.452733 12.7385 1.11348 13.3991 1.87891 13.6053C3.09843 13.8938 5.18535 14.1 7.48301 14.1C9.78066 14.1 11.8676 13.8938 13.0857 13.6053C13.8525 13.3991 14.5133 12.7803 14.652 11.8313C14.792 10.8 14.966 9.31599 15 7.45974C15 5.60349 14.826 4.11785 14.652 3.0866C14.5133 2.17942 13.8525 1.51877 13.0857 1.31252C11.8676 1.10627 9.74531 0.900024 7.44902 0.900024ZM7.44902 1.72502C9.95468 1.72502 11.9723 1.97156 12.9471 2.17781C13.4691 2.34377 13.8865 2.75627 13.9559 3.29285C14.1652 4.61252 14.3039 6.01599 14.3039 7.45974C14.2699 9.2322 14.0959 10.676 13.9559 11.7072C13.8525 12.4903 13.1564 12.7385 12.9471 12.8222C11.6936 13.1107 9.60528 13.3153 7.51699 13.3153C5.42871 13.3153 3.30644 13.151 2.08828 12.8222C1.56621 12.6563 1.14883 12.2438 1.07949 11.7072C0.800779 10.5519 0.696094 9.02595 0.696094 7.50002C0.696094 5.60188 0.836128 4.20002 0.974803 3.33474C1.07949 2.55002 1.80957 2.30188 1.98359 2.2197C3.13242 1.93127 5.25605 1.72502 7.44902 1.72502ZM5.56875 4.20002V10.8L10.4414 7.50002L5.56875 4.20002ZM6.26484 5.60349L9.04922 7.50002L6.26484 9.39656V5.60349Z" fill="white"/>
</svg>
