<svg width="15" height="14" viewBox="0 0 15 14" fill="none" xmlns="http://www.w3.org/2000/svg">
<path d="M14.115 0.180203C13.9489 0.187492 13.7871 0.233735 13.6413 0.29214C13.4969 0.350154 12.6658 0.704884 11.4385 1.22961C10.2112 1.75435 8.6158 2.43766 7.03431 3.11522C3.87132 4.47036 0.763151 5.80372 0.763151 5.80372L0.785805 5.79506C0.785805 5.79506 0.598211 5.85776 0.408017 5.99028C0.31292 6.05654 0.21061 6.14208 0.126841 6.26679C0.0430715 6.3915 -0.0181696 6.56825 0.00490924 6.75518C0.0859725 7.4118 0.766483 7.59804 0.766483 7.59804L0.769148 7.59938L3.80611 8.63879C3.88354 8.8971 4.72724 11.7131 4.91283 12.3094C5.01532 12.6391 5.11126 12.8293 5.21133 12.959C5.2614 13.024 5.31388 13.0742 5.3719 13.111C5.39496 13.1256 5.4192 13.1365 5.4432 13.1463H5.44453C5.44748 13.1476 5.45025 13.1477 5.45319 13.1489L5.4452 13.1469C5.45077 13.1492 5.45627 13.153 5.46185 13.1549C5.47268 13.1587 5.47931 13.1586 5.49317 13.1616C5.84098 13.283 6.12881 13.0577 6.12881 13.0577L6.14081 13.0483L8.00643 11.318L11.0341 13.6786L11.072 13.696C11.602 13.9313 12.0813 13.8 12.3467 13.584C12.6121 13.3681 12.7165 13.0896 12.7165 13.0896L12.7278 13.0603L14.9525 1.46482C15.0095 1.2054 15.0176 0.981162 14.9639 0.778534C14.9102 0.575907 14.7797 0.399765 14.6161 0.302135C14.4524 0.204504 14.2812 0.172913 14.115 0.180203ZM14.133 0.873814C14.2005 0.870689 14.2505 0.878403 14.2663 0.887806C14.282 0.89721 14.2891 0.895972 14.3042 0.953103C14.3194 1.01023 14.3276 1.13057 14.2862 1.3189L14.2849 1.3229L12.0728 12.8511C12.0676 12.8627 12.0215 12.9693 11.9162 13.055C11.8089 13.1423 11.6895 13.2105 11.3725 13.0776L8.06173 10.4958L7.96845 10.4225L7.96645 10.4245L6.97634 9.68154L12.5406 3.13521C12.5833 3.08504 12.6106 3.02356 12.6192 2.9582C12.6277 2.89284 12.6172 2.8264 12.5888 2.76691C12.5604 2.70743 12.5153 2.65745 12.4591 2.62301C12.4029 2.58857 12.3379 2.57115 12.272 2.57286C12.2076 2.57453 12.145 2.5944 12.0915 2.63016L4.03998 7.99782L0.998353 6.9564C0.998353 6.9564 0.69632 6.78833 0.681863 6.67123C0.681062 6.66474 0.677495 6.67062 0.69319 6.64724C0.708885 6.62388 0.748336 6.58443 0.797798 6.54997C0.896722 6.48104 1.00968 6.43936 1.00968 6.43936L1.02101 6.43536L1.03233 6.4307C1.03233 6.4307 4.14067 5.09727 7.30349 3.74221C8.8849 3.06467 10.48 2.38186 11.707 1.85726C12.9337 1.3328 13.8201 0.955291 13.8951 0.925119C13.9806 0.890903 14.0655 0.876939 14.133 0.873814ZM10.4431 4.54909L6.22343 9.51364L6.22143 9.51564C6.21484 9.52357 6.20861 9.53179 6.20277 9.54029C6.19608 9.54952 6.18985 9.55908 6.18412 9.56894C6.16041 9.60918 6.14521 9.65385 6.13947 9.7002C6.13947 9.70109 6.13947 9.70198 6.13947 9.70286L5.58978 12.1748C5.58064 12.1481 5.57424 12.1383 5.56446 12.1069V12.1062C5.38987 11.5452 4.59387 8.88948 4.48373 8.52219L10.4431 4.54909ZM6.69983 10.3272L7.45807 10.8962L6.34403 11.929L6.69983 10.3272Z" fill="white"/>
</svg>
