<svg width="15" height="15" viewBox="0 0 15 15" fill="none" xmlns="http://www.w3.org/2000/svg">
<path d="M7.44902 0.900002C5.15136 0.900002 2.99375 1.10625 1.84492 1.39468C1.07949 1.60093 0.417384 2.21968 0.278709 3.16875C0.140035 4.15811 0 5.64375 0 7.5C0 9.35625 0.138675 10.8 0.312698 11.8313C0.452733 12.7384 1.11348 13.3991 1.87891 13.6053C3.09843 13.8938 5.18535 14.1 7.48301 14.1C9.78066 14.1 11.8676 13.8938 13.0857 13.6053C13.8525 13.3991 14.5133 12.7803 14.652 11.8313C14.792 10.8 14.966 9.31597 15 7.45972C15 5.60347 14.826 4.11782 14.652 3.08657C14.5133 2.1794 13.8525 1.51875 13.0857 1.3125C11.8676 1.10625 9.74531 0.900002 7.44902 0.900002ZM7.44902 1.725C9.95468 1.725 11.9723 1.97153 12.9471 2.17778C13.4691 2.34375 13.8865 2.75625 13.9559 3.29282C14.1652 4.6125 14.3039 6.01597 14.3039 7.45972C14.2699 9.23218 14.0959 10.6759 13.9559 11.7072C13.8525 12.4903 13.1564 12.7384 12.9471 12.8222C11.6936 13.1106 9.60528 13.3153 7.51699 13.3153C5.42871 13.3153 3.30644 13.1509 2.08828 12.8222C1.56621 12.6563 1.14883 12.2438 1.07949 11.7072C0.800779 10.5519 0.696094 9.02593 0.696094 7.5C0.696094 5.60186 0.836128 4.2 0.974803 3.33472C1.07949 2.55 1.80957 2.30186 1.98359 2.21968C3.13242 1.93125 5.25605 1.725 7.44902 1.725ZM5.56875 4.2V10.8L10.4414 7.5L5.56875 4.2ZM6.26484 5.60347L9.04922 7.5L6.26484 9.39653V5.60347Z" fill="black"/>
</svg>
