<svg width="15" height="14" viewBox="0 0 15 14" fill="none" xmlns="http://www.w3.org/2000/svg">
<path d="M14.115 0.180157C13.9489 0.187446 13.7871 0.23369 13.6413 0.292094C13.4969 0.350108 12.6658 0.704838 11.4385 1.22957C10.2112 1.7543 8.6158 2.43761 7.03431 3.11518C3.87132 4.47032 0.763151 5.80367 0.763151 5.80367L0.785805 5.79501C0.785805 5.79501 0.598211 5.85771 0.408017 5.99023C0.31292 6.05649 0.21061 6.14203 0.126841 6.26675C0.0430715 6.39146 -0.0181696 6.5682 0.00490924 6.75514C0.0859725 7.41175 0.766483 7.598 0.766483 7.598L0.769148 7.59933L3.80611 8.63875C3.88354 8.89706 4.72724 11.713 4.91283 12.3094C5.01532 12.6391 5.11126 12.8293 5.21133 12.959C5.2614 13.0239 5.31388 13.0742 5.3719 13.1109C5.39496 13.1255 5.4192 13.1365 5.4432 13.1462H5.44453C5.44748 13.1475 5.45025 13.1476 5.45319 13.1489L5.4452 13.1469C5.45077 13.1491 5.45627 13.1529 5.46185 13.1549C5.47268 13.1587 5.47931 13.1585 5.49317 13.1615C5.84098 13.283 6.12881 13.0576 6.12881 13.0576L6.14081 13.0483L8.00643 11.3179L11.0341 13.6786L11.072 13.6959C11.602 13.9312 12.0813 13.7999 12.3467 13.584C12.6121 13.368 12.7165 13.0896 12.7165 13.0896L12.7278 13.0603L14.9525 1.46477C15.0095 1.20535 15.0176 0.981116 14.9639 0.778488C14.9102 0.575861 14.7797 0.399719 14.6161 0.302089C14.4524 0.204459 14.2812 0.172868 14.115 0.180157ZM14.133 0.873768C14.2005 0.870643 14.2505 0.878357 14.2663 0.88776C14.282 0.897164 14.2891 0.895926 14.3042 0.953057C14.3194 1.01019 14.3276 1.13052 14.2862 1.31885L14.2849 1.32285L12.0728 12.8511C12.0676 12.8627 12.0215 12.9693 11.9162 13.0549C11.8089 13.1423 11.6895 13.2105 11.3725 13.0776L8.06173 10.4957L7.96845 10.4224L7.96645 10.4244L6.97634 9.6815L12.5406 3.13517C12.5833 3.085 12.6106 3.02351 12.6192 2.95815C12.6277 2.89279 12.6172 2.82635 12.5888 2.76687C12.5604 2.70738 12.5153 2.6574 12.4591 2.62296C12.4029 2.58853 12.3379 2.57111 12.272 2.57282C12.2076 2.57449 12.145 2.59435 12.0915 2.63012L4.03998 7.99777L0.998353 6.95636C0.998353 6.95636 0.69632 6.78828 0.681863 6.67119C0.681062 6.6647 0.677495 6.67057 0.69319 6.6472C0.708885 6.62383 0.748337 6.58438 0.797798 6.54992C0.896722 6.48099 1.00968 6.43932 1.00968 6.43932L1.02101 6.43532L1.03233 6.43065C1.03233 6.43065 4.14067 5.09723 7.30349 3.74216C8.8849 3.06463 10.48 2.38182 11.707 1.85722C12.9337 1.33275 13.8201 0.955245 13.8951 0.925073C13.9806 0.890858 14.0655 0.876893 14.133 0.873768ZM10.4431 4.54904L6.22343 9.51359L6.22143 9.51559C6.21484 9.52352 6.20861 9.53175 6.20277 9.54024C6.19608 9.54948 6.18985 9.55904 6.18412 9.56889C6.16041 9.60913 6.14521 9.65381 6.13947 9.70015C6.13947 9.70104 6.13947 9.70193 6.13947 9.70282L5.58978 12.1748C5.58064 12.1481 5.57424 12.1383 5.56446 12.1068V12.1061C5.38987 11.5451 4.59387 8.88944 4.48373 8.52215L10.4431 4.54904ZM6.69983 10.3271L7.45807 10.8962L6.34403 11.9289L6.69983 10.3271Z" fill="black"/>
</svg>
