<svg width="15" height="15" viewBox="0 0 15 15" fill="none" xmlns="http://www.w3.org/2000/svg">
<path d="M7.5 0C3.3619 0 0 3.36728 0 7.512C0 11.2745 2.77075 14.3883 6.37939 14.9313L6.77091 14.9907V9.07123H4.99911V7.86946H6.77091V6.27356C6.77091 5.29083 7.00635 4.64359 7.39613 4.23751C7.7859 3.83143 8.36182 3.62662 9.16326 3.62662C9.80411 3.62662 10.0534 3.66551 10.2905 3.69465V4.67833H9.45623C8.98285 4.67833 8.59447 4.94287 8.39289 5.29522C8.19131 5.64757 8.12855 6.06827 8.12855 6.49698V7.8688H10.216L10.0302 9.07056H8.12855V15L8.5154 14.9473C12.1753 14.4501 15 11.3113 15 7.512C15 3.36728 11.6381 0 7.5 0ZM7.5 0.682909C11.2696 0.682909 14.3182 3.73635 14.3182 7.512C14.3182 10.8343 11.944 13.5666 8.81037 14.1817V9.75347H10.6148L11.011 7.18589H8.81037V6.49698C8.81037 6.14273 8.87508 5.82532 8.98415 5.63467C9.09322 5.44402 9.19836 5.36124 9.45623 5.36124H10.9723V3.07643L10.6767 3.03641C10.4722 3.0087 10.0054 2.94371 9.16326 2.94371C8.24175 2.94371 7.45076 3.19515 6.90474 3.76401C6.35872 4.33286 6.08909 5.17991 6.08909 6.27356V7.18656H4.31729V9.75413H6.08909V14.1604C3.00579 13.5062 0.681818 10.7983 0.681818 7.512C0.681818 3.73635 3.73038 0.682909 7.5 0.682909Z" fill="black"/>
</svg>
