<svg width="25" height="25" viewBox="0 0 25 25" fill="none" xmlns="http://www.w3.org/2000/svg">
<g clip-path="url(#clip0_7_14)">
<path d="M18.9846 12.1558L9.81792 5.90584C9.69 5.81918 9.525 5.80959 9.38833 5.88168C9.25208 5.95376 9.16667 6.09543 9.16667 6.25001V18.75C9.16667 18.9046 9.25208 19.0463 9.38875 19.1183C9.44958 19.1508 9.51667 19.1667 9.58333 19.1667C9.66542 19.1667 9.7475 19.1421 9.81792 19.0942L18.9846 12.8442C19.0983 12.7667 19.1667 12.6379 19.1667 12.5C19.1667 12.3621 19.0983 12.2333 18.9846 12.1558ZM10 17.9613V7.03876L18.0104 12.5L10 17.9613Z" fill="black"/>
<path d="M12.5 0C5.6075 0 0 5.6075 0 12.5C0 19.3925 5.6075 25 12.5 25C19.3925 25 25 19.3925 25 12.5C25 5.6075 19.3925 0 12.5 0ZM12.5 24.1667C6.06708 24.1667 0.833333 18.9329 0.833333 12.5C0.833333 6.06708 6.06708 0.833333 12.5 0.833333C18.9329 0.833333 24.1667 6.06708 24.1667 12.5C24.1667 18.9329 18.9329 24.1667 12.5 24.1667Z" fill="black"/>
</g>
<defs>
<clipPath id="clip0_7_14">
<rect width="25" height="25" fill="white"/>
</clipPath>
</defs>
</svg>
