<svg width="31" height="32" viewBox="0 0 31 32" fill="none" xmlns="http://www.w3.org/2000/svg">
<g clip-path="url(#clip0_8_22)">
<rect x="0.318207" y="0.545532" width="30.6818" height="30.6818" rx="15.3409" fill="#7D4F50" fill-opacity="0.5"/>
<path d="M23.6175 15.464L12.3675 7.79355C12.2105 7.68719 12.008 7.67542 11.8403 7.76389C11.673 7.85236 11.5682 8.02622 11.5682 8.21594V23.5568C11.5682 23.7466 11.673 23.9204 11.8408 24.0089C11.9154 24.0488 11.9978 24.0682 12.0796 24.0682C12.1803 24.0682 12.281 24.038 12.3675 23.9792L23.6175 16.3088C23.7571 16.2137 23.8409 16.0557 23.8409 15.8864C23.8409 15.7171 23.7571 15.5591 23.6175 15.464ZM12.5909 22.5888V9.18395L22.4219 15.8864L12.5909 22.5888Z" fill="white"/>
<path d="M15.6591 0.545532C7.20014 0.545532 0.318207 7.42746 0.318207 15.8864C0.318207 24.3454 7.20014 31.2274 15.6591 31.2274C24.1181 31.2274 31 24.3454 31 15.8864C31 7.42746 24.1181 0.545532 15.6591 0.545532ZM15.6591 30.2046C7.76417 30.2046 1.34093 23.7814 1.34093 15.8864C1.34093 7.9915 7.76417 1.56826 15.6591 1.56826C23.5541 1.56826 29.9773 7.9915 29.9773 15.8864C29.9773 23.7814 23.5541 30.2046 15.6591 30.2046Z" fill="white"/>
</g>
<defs>
<clipPath id="clip0_8_22">
<rect x="0.318207" y="0.545532" width="30.6818" height="30.6818" rx="15.3409" fill="white"/>
</clipPath>
</defs>
</svg>
